<?xml version="1.0" encoding="UTF-8" standalone="no"?>
<!-- Created with Inkscape (http://www.inkscape.org/) -->

<svg
   version="1.1"
   id="svg1"
   width="47.366272"
   height="34.334541"
   viewBox="0 0 47.366272 34.334541"
   xmlns="http://www.w3.org/2000/svg"
   xmlns:svg="http://www.w3.org/2000/svg">
  <defs
     id="defs1" />
  <g
     id="g1"
     transform="translate(-0.38984608,-0.19492299)">
    <g
       id="g2"
       transform="matrix(0.22030825,0,0,0.23356831,0.38984608,0.19492299)">
      <path
         style="fill:#fdfdfd"
         d="M 0,73.5 V 0 H 107.5 215 V 73.5 147 H 107.5 0 Z m 121.46036,38.93402 c 2.49674,-1.63593 4.5423,-6.03758 3.80332,-8.18402 -0.80799,-2.34692 -3.81133,-1.28676 -4.95758,1.75 l -1.13237,3 H 102.78686 C 91.374859,109 86.035694,108.63569 85.2,107.8 83.478673,106.07867 83.478673,33.921327 85.2,32.2 86.035486,31.364514 91.367115,31 102.75202,31 h 16.35202 l 1.0458,3 c 0.64506,1.850409 1.74278,3 2.86465,3 2.32094,0 2.92565,-1.783456 1.7577,-5.184016 C 122.96982,26.568229 120.70822,26 101.62408,26 H 84.177787 L 81.588894,29.076725 79,32.153451 v 38.000197 38.000202 l 2.923077,2.92307 L 84.846154,114 h 17.112106 c 13.84709,0 17.56812,-0.29879 19.5021,-1.56598 z M 160.75,77.626462 c 8.55335,-6.822629 8.46193,-8.387134 -0.92214,-15.780734 -3.94468,-3.107965 -7.76968,-5.42155 -8.5,-5.141298 -2.46381,0.945454 -1.35125,3.89433 2.5858,6.853743 L 157.82732,66.5 126.99536,67 c -16.95757,0.275 -31.190298,0.859084 -31.628284,1.297964 -0.437985,0.43888 -0.313575,1.56388 0.276468,2.5 C 96.60386,72.321532 99.920143,72.552428 127.27074,73 l 30.55438,0.5 -3.91256,2.941827 c -3.87829,2.916058 -5.06961,5.976461 -2.66256,6.839894 1.59283,0.571366 1.99099,0.334349 9.5,-5.655259 z"
         id="path8" />
      <path
         style="fill:#c5f3ef"
         d="m 164,74.622445 c 0,-0.207656 0.7875,-0.995156 1.75,-1.75 1.58606,-1.243871 1.62143,-1.208501 0.37756,0.377555 C 164.82119,74.915748 164,75.445479 164,74.622445 Z M 112.25,72.2519 c 8.6625,-0.166477 22.8375,-0.166477 31.5,0 8.6625,0.166477 1.575,0.302686 -15.75,0.302686 -17.325,0 -24.4125,-0.136209 -15.75,-0.302686 z m 0.5,-4.999884 c 8.3875,-0.16726 22.1125,-0.16726 30.5,0 8.3875,0.167259 1.525,0.304108 -15.25,0.304108 -16.775,0 -23.6375,-0.136849 -15.25,-0.304108 z"
         id="path7" />
      <path
         style="fill:#a8ede6"
         d="m 95.295706,109.25587 c 4.287638,-0.1879 11.037634,-0.18676 15.000004,0.003 3.96236,0.1893 0.45429,0.34304 -7.79571,0.34164 -8.25,-0.001 -11.491932,-0.15629 -7.204294,-0.34419 z M 94.75,30.257493 c 3.9875,-0.189811 10.5125,-0.189811 14.5,0 3.9875,0.189812 0.725,0.345113 -7.25,0.345113 -7.975,0 -11.2375,-0.155301 -7.25,-0.345113 z"
         id="path6" />
      <path
         style="fill:#72e4d9"
         d="m 83.450803,70 c 0,-19.525 0.133953,-27.5125 0.297673,-17.75 0.16372,9.7625 0.16372,25.7375 0,35.5 -0.16372,9.7625 -0.297673,1.775 -0.297673,-17.75 z"
         id="path5" />
      <path
         style="fill:#58ded1"
         d="m 79.450803,70 c 0,-19.525 0.133953,-27.5125 0.297673,-17.75 0.16372,9.7625 0.16372,25.7375 0,35.5 -0.16372,9.7625 -0.297673,1.775 -0.297673,-17.75 z"
         id="path4" />
      <path
         style="fill:#39d9ca"
         d="M 164.40499,66.75 162.5,64.5 l 2.25,1.904988 C 166.86444,68.195206 167.45524,69 166.65499,69 c -0.18976,0 -1.20226,-1.0125 -2.25,-2.25 z m -45.53255,-35.5 c -1.24387,-1.586056 -1.2085,-1.621426 0.37756,-0.377555 0.9625,0.754844 1.75,1.542344 1.75,1.75 0,0.823034 -0.82119,0.293303 -2.12756,-1.372445 z"
         id="path3" />
      <path
         style="fill:#1dd4c2"
         d="M 86.29481,112.89283 C 79.931626,111.05289 80,111.52475 80,69.451808 v -38.10318 l 2.578895,-2.424314 c 2.44465,-2.298116 3.340052,-2.442431 17.201072,-2.772359 17.168393,-0.408651 21.466743,0.490664 23.786563,4.976699 1.70946,3.305739 1.18988,7.027752 -0.71513,5.122747 -0.59567,-0.595668 -1.60617,-2.133416 -2.24557,-3.417217 -1.13803,-2.284973 -1.50755,-2.339991 -17.52731,-2.609641 C 88.902924,29.985934 86.46534,30.173885 84.856871,31.62953 83.112792,33.2079 83,35.510955 83,69.544204 c 0,33.025486 0.154972,36.424066 1.75,38.377906 1.678968,2.05667 2.418575,2.13219 18.22165,1.86078 16.12832,-0.27699 16.49587,-0.33154 17.63418,-2.61707 1.85372,-3.72196 3.23373,-4.7475 3.93374,-2.92329 0.98834,2.57556 -2.19526,7.44179 -5.65841,8.64905 -3.79414,1.32265 -28.013263,1.32358 -32.58635,10e-4 z m 64.40296,-30.528398 c -1.30838,-1.308379 -0.69765,-2.149399 4.3621,-6.006869 L 160.11974,72.5 128.30987,72 C 100.92332,71.569527 96.5,71.291418 96.5,70 c 0,-1.291454 4.42635,-1.569515 31.83714,-2 l 31.83714,-0.5 -4.58714,-3.435855 C 151.56544,61.051814 149.41992,57 151.84653,57 c 1.4819,0 14.63082,11.524615 14.93175,13.087207 0.16423,0.852779 -2.53255,3.761043 -6.24961,6.73971 -7.07003,5.665566 -8.7542,6.614218 -9.8309,5.537515 z"
         id="path2" />
    </g>
  </g>
</svg>
