<?xml version="1.0" encoding="UTF-8" standalone="no"?>
<!-- Created with Inkscape (http://www.inkscape.org/) -->

<svg
   version="1.1"
   id="svg1"
   width="44.03075"
   height="46.531364"
   viewBox="0 0 44.03075 46.531364"
   xmlns="http://www.w3.org/2000/svg"
   xmlns:svg="http://www.w3.org/2000/svg">
  <defs
     id="defs1" />
  <g
     id="g1"
     transform="translate(-0.95448918,-0.47724474)">
    <g
       id="g2"
       transform="matrix(0.24326381,0,0,0.2398524,0.95448918,0.47724474)">
      <path
         style="fill:#fdfdfd"
         d="M 0,97 V 0 H 90.5 181 v 97 97 H 90.5 0 Z m 78.964816,38.06574 C 79.62016,133.84122 80,120.65796 80,99.13717 80,69.566583 79.795508,64.938365 78.428571,63.571429 77.564286,62.707143 76.285118,62 75.585976,62 c -0.699142,0 -5.20281,4.275 -10.008151,9.5 L 56.840841,81 h -7.385237 c -6.278111,0 -7.540422,0.289966 -8.42042,1.934259 C 39.522463,85.760803 39.667247,117.26725 41.2,118.8 c 0.722031,0.72203 4.216017,1.2 8.772078,1.2 h 7.572078 L 66,128.5 c 8.65375,8.69894 11.147325,9.96175 12.964816,6.56574 z M 65.837941,117.47985 C 60.23804,112.06016 60.109048,112 54.087941,112 H 48 V 100.5 89 h 6.215281 6.215281 L 66.215281,82.768076 72,76.536152 v 23.231924 c 0,12.777554 -0.1125,23.222854 -0.25,23.211774 -0.1375,-0.0111 -2.797927,-2.48609 -5.912059,-5.5 z m 48.112259,14.83938 c 15.99296,-18.16895 15.80009,-47.254187 -0.43811,-66.06923 -4.1534,-4.812507 -7.028,-5.406568 -8.6746,-1.792682 -0.97812,2.146741 -0.7309,2.900048 1.956,5.960262 14.22396,16.200194 14.9578,39.56701 1.76128,56.08242 -4.54672,5.69021 -4.77192,6.22573 -3.56583,8.47933 1.71908,3.21214 4.52565,2.37902 8.96126,-2.6601 z M 102.74969,123.75 c 1.72812,-1.7875 4.39681,-5.95 5.93044,-9.25 2.39562,-5.1548 2.79063,-7.27076 2.80414,-15.021027 0.0142,-8.141474 -0.29571,-9.653659 -3.17854,-15.509521 -3.88667,-7.89494 -8.26515,-12.434495 -11.119497,-11.52856 -3.042129,0.965534 -3.546344,3.624402 -1.234452,6.50961 1.12359,1.402224 3.27289,4.799498 4.776219,7.549498 2.33256,4.266872 2.73363,6.173005 2.73536,13 0.002,8.64067 -2.01133,14.14708 -7.19812,19.68492 -1.893359,2.0215 -2.355648,3.31873 -1.87093,5.25 0.91051,3.62776 4.467905,3.33615 8.35538,-0.68492 z M 94.25,110.02409 c 4.657796,-8.89634 2.992881,-20.541479 -3.688193,-25.796813 -5.490256,-4.318635 -8.057544,0.364302 -3.997637,7.292008 2.199467,3.753106 2.597563,5.44573 2.215642,9.420455 -0.275363,2.86576 -1.346863,5.96569 -2.622693,7.58764 -2.590873,3.29377 -2.765111,6.03299 -0.465603,7.31986 2.853053,1.59665 5.681234,-0.32763 8.558484,-5.82315 z"
         id="path9" />
      <path
         style="fill:#c5f3ef"
         d="m 40.41127,101 c 0,-9.625 0.149984,-13.5625 0.333298,-8.75 0.183314,4.8125 0.183314,12.6875 0,17.5 -0.183314,4.8125 -0.333298,0.875 -0.333298,-8.75 z M 64,84.622445 c 0,-0.207656 0.7875,-0.995156 1.75,-1.75 C 67.336056,81.628574 67.371426,81.663944 66.127555,83.25 64.821186,84.915748 64,85.445479 64,84.622445 Z m -7,-4 c 0,-0.207656 0.7875,-0.995156 1.75,-1.75 C 60.336056,77.628574 60.371426,77.663944 59.127555,79.25 57.821186,80.915748 57,81.445479 57,80.622445 Z"
         id="path8" />
      <path
         style="fill:#a9eee7"
         d="m 50.75,88.276604 c 1.7875,-0.221826 4.7125,-0.221826 6.5,0 1.7875,0.221827 0.325,0.403322 -3.25,0.403322 -3.575,0 -5.0375,-0.181495 -3.25,-0.403322 z"
         id="path7" />
      <path
         style="fill:#8ee9e0"
         d="m 79.449558,100 c 0,-18.975 0.134476,-26.7375 0.298835,-17.25 0.164359,9.4875 0.164359,25.0125 0,34.5 -0.164359,9.4875 -0.298835,1.725 -0.298835,-17.25 z M 65.96584,118.25 60.5,112.5 l 5.75,5.46584 c 3.1625,3.00621 5.75,5.59371 5.75,5.75 0,0.74225 -0.956222,-0.12391 -6.03416,-5.46584 z m -15.197931,-5.97473 c 1.79735,-0.22256 4.49735,-0.21797 6,0.0102 1.50265,0.22818 0.03209,0.41027 -3.267909,0.40466 -3.3,-0.006 -4.529441,-0.1923 -2.732091,-0.41486 z M 111.07895,96.416667 c 0.048,-1.164943 0.28494,-1.4019 0.60416,-0.604167 0.28887,0.721875 0.25335,1.584375 -0.0789,1.916667 -0.3323,0.332291 -0.56864,-0.258334 -0.52522,-1.3125 z M 112.87244,66.25 c -1.24387,-1.586056 -1.2085,-1.621426 0.37756,-0.377555 0.9625,0.754844 1.75,1.542344 1.75,1.75 0,0.823034 -0.82119,0.293303 -2.12756,-1.372445 z"
         id="path6" />
      <path
         style="fill:#72e4d9"
         d="m 111.15789,100 c 0,-1.375 0.22698,-1.9375 0.50439,-1.25 0.27741,0.6875 0.27741,1.8125 0,2.5 -0.27741,0.6875 -0.50439,0.125 -0.50439,-1.25 z m 7.03706,-0.5 c 0.0204,-1.65 0.2445,-2.203936 0.49804,-1.230968 0.25354,0.972967 0.23687,2.322968 -0.037,2.999998 C 118.38206,101.94606 118.17462,101.15 118.195,99.5 Z m 6.884,-4.083333 c 0.048,-1.164943 0.28494,-1.4019 0.60416,-0.604167 0.28887,0.721875 0.25335,1.584375 -0.0789,1.916667 -0.3323,0.332291 -0.56864,-0.258334 -0.52522,-1.3125 z"
         id="path5" />
      <path
         style="fill:#55ded1"
         d="m 104.07895,97.416667 c 0.048,-1.164943 0.28494,-1.4019 0.60416,-0.604167 0.28887,0.721875 0.25335,1.584375 -0.0789,1.916667 -0.3323,0.332291 -0.56864,-0.258334 -0.52522,-1.3125 z M 63.5,74 c 0.995486,-1.1 2.034975,-2 2.309975,-2 0.275,0 -0.314489,0.9 -1.309975,2 -0.995486,1.1 -2.034975,2 -2.309975,2 -0.275,0 0.314489,-0.9 1.309975,-2 z M 71,65.622445 c 0,-0.207656 0.7875,-0.995156 1.75,-1.75 C 74.336056,62.628574 74.371426,62.663944 73.127555,64.25 71.821186,65.915748 71,66.445479 71,65.622445 Z"
         id="path4" />
      <path
         style="fill:#39d9ca"
         d="M 65.47654,127.75 57.5,119.5 l 8.25,7.97654 C 73.412347,134.88491 74.45589,136 73.72654,136 c -0.150403,0 -3.862903,-3.7125 -8.25,-8.25 z M 99,126.62244 c 0,-0.20765 0.7875,-0.99515 1.75,-1.75 1.58606,-1.24387 1.62143,-1.2085 0.37756,0.37756 C 99.821186,126.91575 99,127.44548 99,126.62244 Z M 72.433554,99.5 c -6.11e-4,-13.75 0.14023,-19.513697 0.312979,-12.808215 0.17275,6.705481 0.173249,17.955485 0.0011,24.999995 C 72.575505,118.7363 72.434164,113.25 72.433554,99.5 Z M 89,115.62244 c 0,-0.20765 0.7875,-0.99515 1.75,-1.75 1.586056,-1.24387 1.621426,-1.2085 0.377555,0.37756 C 89.821186,115.91575 89,116.44548 89,115.62244 Z M 65,82.622445 c 0,-0.207656 0.7875,-0.995156 1.75,-1.75 C 68.336056,79.628574 68.371426,79.663944 67.127555,81.25 65.821186,82.915748 65,83.445479 65,82.622445 Z M 108.87244,72.25 c -1.24387,-1.586056 -1.2085,-1.621426 0.37756,-0.377555 0.9625,0.754844 1.75,1.542344 1.75,1.75 0,0.823034 -0.82119,0.293303 -2.12756,-1.372445 z"
         id="path3" />
      <path
         style="fill:#1dd4c2"
         d="M 66.52346,128.03236 58.54692,120 H 51.344889 C 40.832676,120 41,120.32408 41,99.963755 41,80.348827 40.645427,81 51.326049,81 h 6.457533 l 8.261567,-9.049454 c 6.108424,-6.690972 8.807997,-8.971411 10.358209,-8.75 C 78.487842,63.498264 78.5,63.708758 78.5,99.5 c 0,42.93255 0.690349,41.28789 -11.97654,28.53236 z M 72.95372,99.25 72.907439,74.5 66.70372,81.250435 60.5,88.000871 54.25,88.000435 48,88 v 12.5 12.5 h 6.28416 6.28416 L 66,118.5 c 2.987424,3.025 5.784552,5.5 6.21584,5.5 0.431288,0 0.763334,-11.1375 0.73788,-24.75 z M 106.2,134.8 c -1.77955,-1.77955 -1.53492,-2.55468 2.27286,-7.20157 4.69272,-5.72685 8.44079,-14.2235 9.74425,-22.08965 1.9773,-11.932575 -2.02661,-25.864639 -9.95535,-34.640803 -3.72374,-4.121734 -3.97388,-7.191292 -0.62514,-7.671332 2.51395,-0.360373 8.32436,5.922419 11.84071,12.803355 7.95529,15.567236 7.33905,35.3434 -1.54246,49.5 -3.66875,5.84778 -7.84333,10.5 -9.42196,10.5 -0.6121,0 -1.65291,-0.54 -2.31291,-1.2 z m -9.95,-8.46228 c -2.173222,-0.87691 -1.364091,-4.17095 2.157911,-8.78502 4.393099,-5.75528 6.006789,-10.60503 6.006789,-18.0527 0,-7.472227 -1.61443,-12.298401 -6.06401,-18.127663 -3.771602,-4.941068 -4.015908,-7.702311 -0.723251,-8.174488 2.659181,-0.381335 6.763041,4.329086 10.282401,11.802151 2.21941,4.712741 2.59005,6.859811 2.58941,15 -8.6e-4,10.93313 -1.76084,15.96314 -8.00294,22.8724 -3.798728,4.20474 -4.05773,4.34843 -6.24631,3.46532 z m -10,-11.00439 c -1.893171,-0.75726 -1.500053,-4.0761 0.861105,-7.26974 1.161108,-1.57048 2.339193,-4.879 2.617966,-7.35227 0.412171,-3.656772 -0.01326,-5.422128 -2.277311,-9.449768 -4.608766,-8.198791 -1.073556,-11.354324 4.709514,-4.203719 5.342427,6.605763 5.350354,18.271097 0.01689,24.860757 -2.965323,3.66376 -3.924448,4.21623 -5.928168,3.41474 z"
         id="path2" />
    </g>
  </g>
</svg>
