<?xml version="1.0" encoding="UTF-8" standalone="no"?>
<!-- Created with Inkscape (http://www.inkscape.org/) -->

<svg
   version="1.1"
   id="svg1"
   width="44.799507"
   height="42.548588"
   viewBox="0 0 44.799507 42.548588"
   xmlns="http://www.w3.org/2000/svg"
   xmlns:svg="http://www.w3.org/2000/svg">
  <defs
     id="defs1" />
  <g
     id="g1"
     transform="translate(-1.8499386,-1.8499385)">
    <g
       id="g2"
       transform="matrix(0.20550233,0,0,0.22632227,1.8499386,1.8499385)">
      <path
         style="fill:#fefefe"
         d="M 70.5,132.61269 C 58.203569,126.78966 51.657603,112.56939 55.37971,99.765786 59.597494,85.257119 76.057702,76.641325 91.003465,81.119184 l 3.735505,1.119185 25.7136,-18.674825 c 23.08074,-16.762679 25.97874,-18.586439 28.3032,-17.811621 2.41667,0.805559 1.19204,1.870511 -18.33884,15.947571 -27.70872,19.971312 -26.31177,18.769801 -24.25529,20.861914 1.55596,1.582934 3.13454,0.627199 24.8232,-15.028945 12.73887,-9.195657 23.3033,-16.564822 23.47653,-16.37592 0.17322,0.188901 0.63245,4.003332 1.02051,8.476512 0.8028,9.253771 0.27845,10.132946 -4.92188,8.252483 -4.07392,-1.473152 -6.56,-0.07932 -6.56,3.67789 0,2.956851 -1.41192,3.821671 -3.98825,2.442859 -1.59277,-0.852422 -2.53825,-0.702519 -4.39296,0.69649 -1.95562,1.475134 -2.27684,2.427768 -1.86185,5.521752 0.63981,4.770118 -1.34385,5.716434 -6.81301,3.250186 -3.81568,-1.720629 -4.01851,-1.717194 -6.02881,0.102103 -1.48404,1.343033 -1.97469,2.787228 -1.71184,5.038686 0.29551,2.531314 -0.16194,3.512519 -2.31096,4.956867 -2.34941,1.57903 -2.54367,2.098729 -1.57727,4.219739 0.97644,2.143059 0.73518,2.72051 -2.11547,5.06341 -2.41316,1.98332 -3.21536,3.44765 -3.20859,5.85697 0.0249,8.87862 -7.41491,19.89385 -16.361842,24.22499 -6.147808,2.9761 -16.464612,2.83123 -23.129148,-0.32479 z m 22.39012,-3.24522 c 6.496474,-3.23733 11.60837,-9.8396 13.104,-16.92448 3.94373,-18.681614 -14.190971,-34.258155 -32.055643,-27.533735 -14.089083,5.303255 -20.05396,20.158715 -13.48521,33.584755 5.928054,12.1165 20.284701,16.92913 32.436853,10.87346 z M 72.3094,126.46689 c -18.992925,-9.46457 -13.391253,-37.010438 7.95862,-39.136004 4.436645,-0.441707 6.06571,-0.08169 10.716541,2.368334 7.505883,3.95404 11.352099,10.088603 11.340449,18.08757 -0.0238,16.34688 -15.442086,25.94239 -30.01561,18.6801 z m 9.5406,-8.94233 c 5.713019,-5.51857 0.987602,-15.39558 -6.774884,-14.16078 -8.913573,1.4179 -10.886373,12.65407 -2.83273,16.13393 3.839455,1.65898 6.389717,1.13522 9.607614,-1.97315 z"
         id="path8" />
      <path
         style="fill:#dddddd"
         d="M 61.404988,126.75 59.5,124.5 l 2.25,1.90499 C 63.864445,128.19521 64.455241,129 63.654988,129 c -0.189757,0 -1.202257,-1.0125 -2.25,-2.25 z m 2.467457,-2.5 c -1.243871,-1.58606 -1.208501,-1.62143 0.377555,-0.37756 0.9625,0.75485 1.75,1.54235 1.75,1.75 0,0.82304 -0.821186,0.29331 -2.127555,-1.37244 z M 98.924314,90.25 96.5,87.5 l 2.75,2.424314 c 1.5125,1.333373 2.75,2.570873 2.75,2.75 0,0.784274 -0.8098,0.145975 -3.075686,-2.424314 z"
         id="path7" />
      <path
         style="fill:#bdbdbd"
         d="m 98.5,125 c 0.995486,-1.1 2.03498,-2 2.30998,-2 0.275,0 -0.31449,0.9 -1.30998,2 -0.995486,1.1 -2.034975,2 -2.309975,2 -0.275,0 0.314489,-0.9 1.309975,-2 z M 61,88.622445 c 0,-0.207656 0.7875,-0.995156 1.75,-1.75 C 64.336056,85.628574 64.371426,85.663944 63.127555,87.25 61.821186,88.915748 61,89.445479 61,88.622445 Z"
         id="path6" />
      <path
         style="fill:#7d7d7d"
         d="m 110,107.05902 c 0,-1.06754 0.38499,-2.17893 0.85554,-2.46974 0.47055,-0.29082 0.64309,0.58263 0.38343,1.94098 C 110.67495,109.48072 110,109.76877 110,107.05902 Z"
         id="path5" />
      <path
         style="fill:#5e5e5e"
         d="m 144.07895,70.416667 c 0.048,-1.164943 0.28494,-1.4019 0.60416,-0.604167 0.28887,0.721875 0.25335,1.584375 -0.0789,1.916667 -0.3323,0.332291 -0.56864,-0.258334 -0.52522,-1.3125 z"
         id="path4" />
      <path
         style="fill:#3e3e3e"
         d="m 101,128.62244 c 0,-0.20765 0.7875,-0.99515 1.75,-1.75 1.58606,-1.24387 1.62143,-1.2085 0.37756,0.37756 C 101.82119,128.91575 101,129.44548 101,128.62244 Z M 64,91.622445 c 0,-0.207656 0.7875,-0.995156 1.75,-1.75 C 67.336056,88.628574 67.371426,88.663944 66.127555,90.25 64.821186,91.915748 64,92.445479 64,91.622445 Z m 16.8125,-5.305559 c 0.721875,-0.288871 1.584375,-0.253344 1.916667,0.07895 0.332291,0.332292 -0.258334,0.568641 -1.3125,0.52522 -1.164943,-0.04798 -1.4019,-0.284941 -0.604167,-0.604167 z"
         id="path3" />
      <path
         style="fill:#000000"
         d="M 0,94 V 0 h 109 109 v 94 94 H 109 0 Z m 91.124273,40.459 c 10.455927,-3.68226 17.152507,-11.62432 19.067157,-22.61342 0.88937,-5.10453 1.71218,-6.87292 4.20708,-9.04188 2.79206,-2.4273 2.97022,-2.910352 1.78575,-4.841695 -1.1361,-1.852494 -1.06784,-2.333309 0.5,-3.521892 0.99866,-0.757078 2.20247,-1.390818 2.67515,-1.40831 0.47267,-0.01749 0.67426,-1.617684 0.44797,-3.555983 -0.29272,-2.507405 0.10782,-3.994091 1.3883,-5.15291 1.66569,-1.507427 2.10421,-1.491428 5.88801,0.214828 5.2668,2.374998 7.50565,1.191059 7.20962,-3.812577 -0.26564,-4.490144 2.53624,-7.421937 5.55106,-5.808451 2.89681,1.550323 5.15563,0.313182 5.15563,-2.823699 0,-4.209538 1.67342,-5.216387 5.57644,-3.355171 2.79185,1.331342 3.58652,1.371803 4.93658,0.251352 1.32202,-1.097173 1.48463,-2.497587 0.91149,-7.849483 C 155.04197,48.229696 157.4422,47.71763 131.25672,66.509004 110.55596,81.364401 106,83.985424 106,81.039081 c 0,-0.463586 10.5603,-8.424528 23.46733,-17.690983 12.90703,-9.266454 23.48203,-17.185598 23.5,-17.598098 0.018,-0.4125 -1.87983,-0.726585 -4.21733,-0.697967 -3.90079,0.04776 -6.30419,1.552682 -29.25,18.315273 L 94.5,81.630545 90,80.241717 c -9.184988,-2.83475 -20.30113,-0.0049 -27.87246,7.095565 -10.851011,10.17616 -11.0023,28.919338 -0.322826,39.995138 7.802198,8.09175 18.911414,10.79202 29.319559,7.12658 z m -19.965856,-6.01818 c -9.765857,-4.95643 -14.438635,-14.95707 -12.146844,-25.99657 0.9833,-4.736526 2.039776,-6.565872 6.334279,-10.968148 7.25107,-7.43304 15.028995,-9.271388 24.939456,-5.894555 12.521312,4.26644 19.087732,19.385403 13.637742,31.400473 -4.100497,9.03999 -10.217591,13.16274 -20.415763,13.75965 -6.113016,0.35781 -7.688981,0.0642 -12.34887,-2.30085 z M 90.5,127.62258 C 99.018949,123.60523 103,117.3345 103,107.93325 103,95.9537 93.651369,86.737261 81.5,86.737261 c -12.9768,0 -22.390516,10.510743 -21.290796,23.771919 0.62404,7.5251 4.519456,13.08632 11.7263,16.74082 6.713565,3.40437 11.91413,3.50874 18.564496,0.37258 z m -18.184628,-8.62956 c -4.692279,-1.89056 -5.835746,-9.21607 -2.000921,-12.81871 2.684625,-2.52207 7.299844,-2.8332 10.348779,-0.69764 4.458285,3.12271 3.694503,11.12804 -1.277872,13.39361 -2.876852,1.31078 -4.06992,1.33149 -7.069986,0.12274 z"
         id="path2" />
    </g>
  </g>
</svg>
