<?xml version="1.0" encoding="UTF-8" standalone="no"?>
<!-- Created with Inkscape (http://www.inkscape.org/) -->

<svg
   width="90.822701mm"
   height="76.206001mm"
   viewBox="0 0 90.822701 76.206001"
   version="1.1"
   id="svg1"
   xml:space="preserve"
   xmlns="http://www.w3.org/2000/svg"
   xmlns:svg="http://www.w3.org/2000/svg"><defs
     id="defs1" /><g
     id="layer1"
     transform="translate(-61.441195,-28.562596)"><g
       id="g16"
       transform="matrix(0.91553228,0,0,0.91251436,3.0954643,-15.214655)"><path
         style="fill:#d0d0d0;fill-opacity:1"
         d="m 117.7855,112.44133 c 0.35132,-0.12185 0.77109,-0.10686 0.93281,0.0333 0.16172,0.14016 -0.12573,0.23986 -0.63878,0.22154 -0.56696,-0.0202 -0.68228,-0.12019 -0.29403,-0.25484 z m 14.24352,-14.299348 c 0.0233,-0.491381 0.13867,-0.591331 0.29404,-0.254842 0.14058,0.304492 0.12329,0.6683 -0.0384,0.808463 -0.16172,0.140163 -0.27675,-0.108966 -0.25561,-0.553621 z M 91.870426,93.624516 c 0.182766,-0.415994 0.4549,-0.650097 0.604744,-0.520228 0.149844,0.129869 3.09e-4,0.470228 -0.3323,0.756354 -0.480657,0.413483 -0.53656,0.365033 -0.272444,-0.236126 z"
         id="path23" /><path
         style="fill:#b9b9b9;fill-opacity:1"
         d="m 124.68121,112.08724 c -0.34174,-0.35688 -1.00089,-0.53608 -1.48352,-0.40332 -0.53809,0.14802 -1.06406,-0.049 -1.38244,-0.51774 -0.44641,-0.65727 -0.57666,-0.67355 -0.99174,-0.12394 -0.31078,0.41151 -1.26476,0.63271 -2.72867,0.63271 -2.7914,0 -4.11157,-1.1662 -4.11157,-3.63208 0,-0.90228 0.1014,-1.6405 0.22533,-1.6405 0.12393,0 1.33658,0.37962 2.69478,0.84361 1.3582,0.46399 2.6453,0.84361 2.86022,0.84361 0.21493,0 0.67066,-0.8067 1.01274,-1.79267 0.34208,-0.98598 0.72906,-2.0774 0.85995,-2.42539 0.13772,-0.36616 0.59685,0.25579 1.08984,1.47632 0.46853,1.15997 1.5362,3.15301 2.37259,4.42897 0.83639,1.27597 1.52468,2.4623 1.52953,2.6363 0.0156,0.55937 -1.31214,0.33714 -1.94704,-0.32588 z m 6.33602,-0.11276 c 0,-0.18325 0.30634,-1.36959 0.68077,-2.63629 0.37443,-1.26671 0.96514,-3.65894 1.31269,-5.31605 0.45135,-2.15203 0.81309,-2.95269 1.26596,-2.80207 0.34873,0.11598 0.63405,0.63683 0.63405,1.15744 0,0.52061 0.54752,1.83904 1.21671,2.92984 0.66919,1.0908 1.21671,2.53527 1.21671,3.20994 0,1.52937 -1.66899,2.94676 -3.46984,2.94676 -0.73675,0 -1.47491,0.18981 -1.64034,0.42181 -0.35739,0.50118 -1.21671,0.56377 -1.21671,0.0886 z M 119.0673,100.31344 c -0.80622,-0.518015 -0.85666,-0.737146 -0.33885,-1.472184 1.03392,-1.467691 0.68572,-2.671647 -1.28541,-4.44442 -1.25042,-1.124591 -2.14725,-2.47203 -2.63993,-3.966367 -1.11561,-3.383692 -0.81601,-3.567025 3.11772,-1.907798 1.86364,0.786075 3.62653,1.429227 3.91752,1.429227 0.34652,0 0.42233,0.618565 0.2197,1.792679 -0.17016,0.985974 -0.50185,3.282898 -0.7371,5.104275 -0.48296,3.739398 -0.87881,4.347948 -2.25365,3.464588 z m 14.26473,-3.085896 c -0.13959,-1.334251 -0.83881,-3.630528 -1.55381,-5.102835 -1.29999,-2.676924 -1.29999,-2.676924 0.55123,-4.117143 2.27096,-1.766768 4.39852,-2.814682 5.02897,-2.476985 0.25981,0.139169 0.47157,1.428165 0.47057,2.864434 -0.002,2.889411 -0.9971,4.795448 -3.1384,6.011449 -1.55286,0.881839 -1.56653,1.363994 -0.0528,1.862786 0.65291,0.215147 1.42021,0.768658 1.7051,1.230024 0.42344,0.685733 0.32025,0.95889 -0.56538,1.496515 -1.78733,1.085011 -2.17637,0.803705 -2.44546,-1.768245 z"
         id="path22" /><path
         style="fill:#a3a3a3;fill-opacity:1"
         d="m 94.911331,127.62638 c 0.351325,-0.12185 0.77109,-0.10686 0.932812,0.0333 0.161721,0.14016 -0.125727,0.23985 -0.638774,0.22154 -0.566959,-0.0202 -0.682282,-0.12019 -0.294038,-0.25484 z M 125.6637,112.9855 c 0,-0.0912 0.33988,-0.27881 0.7553,-0.41697 0.43311,-0.14405 0.62847,-0.0733 0.45796,0.16577 -0.28581,0.4008 -1.21326,0.59283 -1.21326,0.2512 z m -35.88371,-8.14086 c 0.473528,-0.10695 1.130552,-0.0999 1.460053,0.0156 0.329501,0.11554 -0.05793,0.20304 -0.86096,0.19445 -0.803029,-0.009 -1.072621,-0.10314 -0.599093,-0.21008 z m -19.202877,-3.7921 c 0.351326,-0.12185 0.771091,-0.10686 0.932812,0.0333 0.161721,0.14017 -0.125727,0.23986 -0.638773,0.22154 -0.56696,-0.0202 -0.682283,-0.12019 -0.294039,-0.25484 z m 62.425277,-4.597786 c 0.0234,-0.491381 0.13867,-0.591331 0.29403,-0.254842 0.14059,0.304492 0.1233,0.668301 -0.0384,0.808464 -0.16172,0.140163 -0.27675,-0.108967 -0.25561,-0.553622 z m -16.62253,-2.601143 c -1.17988,-1.159969 -1.17988,-1.159969 0.15851,-0.137376 1.25092,0.955767 1.56157,1.297346 1.17987,1.297346 -0.0872,0 -0.68945,-0.521987 -1.33838,-1.15997 z m 21.52779,-4.32352 c 0,-0.579985 0.11047,-0.817251 0.24548,-0.527259 0.13501,0.289992 0.13501,0.764525 0,1.054517 -0.13501,0.289993 -0.24548,0.05273 -0.24548,-0.527258 z"
         id="path21" /><path
         style="fill:#8c8c8c;fill-opacity:1"
         d="m 113.53501,108.26535 c 0.0233,-0.49138 0.13868,-0.59133 0.29404,-0.25484 0.14059,0.30449 0.1233,0.6683 -0.0384,0.80846 -0.16172,0.14016 -0.27675,-0.10897 -0.25562,-0.55362 z m 22.10916,-11.55971 c -0.1705,-0.239106 0.0248,-0.309821 0.45796,-0.165775 0.84314,0.280413 0.99741,0.58275 0.29735,0.58275 -0.25188,0 -0.59177,-0.187639 -0.75531,-0.416975 z m -17.98998,-0.8193 c -0.154,-0.215963 -0.0939,-0.492333 0.13351,-0.614155 0.22743,-0.121822 0.4135,0.05488 0.4135,0.392661 0,0.711237 -0.15346,0.773379 -0.54701,0.221494 z m -6.59102,-36.463796 c 0,-0.08759 0.38326,-0.419763 0.8517,-0.738162 0.7719,-0.524673 0.78912,-0.509754 0.18375,0.159256 -0.63579,0.702624 -1.03545,0.926068 -1.03545,0.578906 z"
         id="path20" /><path
         style="fill:#767676;fill-opacity:1"
         d="m 119.61143,107.54414 c 0.18277,-0.41599 0.4549,-0.65009 0.60475,-0.52022 0.14984,0.12986 3.1e-4,0.47022 -0.3323,0.75635 -0.48066,0.41348 -0.53656,0.36503 -0.27245,-0.23613 z m 13.42938,-5.35984 c 0,-0.57999 0.11046,-0.81725 0.24548,-0.52726 0.13501,0.28999 0.13501,0.76452 0,1.05452 -0.13502,0.28999 -0.24548,0.0527 -0.24548,-0.52726 z m 0.14648,-2.558907 c -0.17644,-0.247428 -0.21642,-0.540334 -0.0888,-0.650902 0.12757,-0.110567 0.36164,0.09187 0.52014,0.44987 0.32909,0.743269 0.0486,0.874009 -0.4313,0.201032 z M 103.21414,65.170741 c -0.60537,-0.669009 -0.58816,-0.683928 0.18375,-0.159255 0.46843,0.318399 0.8517,0.650571 0.8517,0.738162 0,0.347161 -0.39966,0.123717 -1.03545,-0.578907 z"
         id="path19" /><path
         style="fill:#606060;fill-opacity:1"
         d="m 132.02902,106.57812 c 0.0233,-0.49138 0.13867,-0.59133 0.29404,-0.25484 0.14058,0.30449 0.12329,0.6683 -0.0384,0.80846 -0.16172,0.14016 -0.27675,-0.10897 -0.25561,-0.55362 z M 90.073662,96.80626 c -0.605373,-0.669009 -0.588159,-0.683929 0.18375,-0.159256 0.468434,0.318399 0.851697,0.650572 0.851697,0.738163 0,0.347161 -0.399658,0.123717 -1.035447,-0.578907 z m 38.672368,-6.624904 c 0,-0.337786 0.18608,-0.514483 0.41351,-0.392661 0.22743,0.121822 0.28751,0.398192 0.13351,0.614156 -0.39355,0.551884 -0.54702,0.489742 -0.54702,-0.221495 z m -32.345472,-11.9346 c -0.605372,-0.66901 -0.588158,-0.683929 0.18375,-0.159256 0.468434,0.318399 0.851698,0.650572 0.851698,0.738162 0,0.347162 -0.399658,0.123718 -1.035448,-0.578906 z m 14.399252,0.288292 c -0.17644,-0.247429 -0.21642,-0.540335 -0.0888,-0.650903 0.12757,-0.110567 0.36164,0.09188 0.52014,0.449871 0.32909,0.743269 0.0486,0.874008 -0.4313,0.201032 z m 4.35393,-15.262438 c -0.92712,-0.949065 -0.92712,-0.949065 0.16792,-0.145528 1.02906,0.755126 1.31659,1.094594 0.92712,1.094594 -0.0923,0 -0.58512,-0.42708 -1.09504,-0.949066 z m -2.9201,-2.530841 c -0.92713,-0.949066 -0.92713,-0.949066 0.16791,-0.145529 1.02907,0.755126 1.3166,1.094594 0.92713,1.094594 -0.0924,0 -0.58512,-0.427079 -1.09504,-0.949065 z m 17.89108,-4.060377 c -0.53423,-0.293504 -0.52705,-0.39726 0.0406,-0.586036 0.39344,-0.130849 0.68972,0.02513 0.68972,0.363107 0,0.325872 -0.0182,0.589589 -0.0406,0.586036 -0.0223,-0.0036 -0.33268,-0.16695 -0.68972,-0.363107 z m -8.11385,-0.898441 c -0.48598,-0.46541 -0.79368,-0.921352 -0.68379,-1.013205 0.10989,-0.09185 0.59329,0.288937 1.07422,0.8462 1.06213,1.230714 0.82582,1.331795 -0.39043,0.167005 z m 3.69125,-1.930695 c 0.0234,-0.491381 0.13868,-0.591331 0.29404,-0.254842 0.14059,0.304492 0.1233,0.6683 -0.0384,0.808463 -0.16172,0.140163 -0.27675,-0.108966 -0.25562,-0.553621 z"
         id="path18" /><path
         style="fill:#494949;fill-opacity:1"
         d="m 80.112471,111.78041 c -0.927128,-0.94907 -0.927128,-0.94907 0.167912,-0.14553 1.029067,0.75512 1.316598,1.09459 0.927127,1.09459 -0.09235,0 -0.585119,-0.42708 -1.095039,-0.94906 z m 1.509739,-2.84237 c -0.170504,-0.23911 0.02485,-0.30982 0.457962,-0.16577 0.84314,0.28041 0.997404,0.58275 0.297342,0.58275 -0.251879,0 -0.591766,-0.18764 -0.755304,-0.41698 z m -6.635763,-4.11745 c -0.605373,-0.66901 -0.588158,-0.68393 0.18375,-0.15925 0.468434,0.31839 0.851698,0.65057 0.851698,0.73816 0,0.34716 -0.399659,0.12372 -1.035448,-0.57891 z M 87.124381,104.427 c 0.351326,-0.12185 0.771091,-0.10687 0.932812,0.0333 0.161721,0.14016 -0.125727,0.23985 -0.638773,0.22154 -0.56696,-0.0202 -0.682283,-0.12019 -0.294039,-0.25484 z m -14.312176,-1.08273 c -0.927127,-0.94907 -0.927127,-0.94907 0.167912,-0.14553 1.029068,0.75512 1.316599,1.09459 0.927128,1.09459 -0.09235,0 -0.58512,-0.42708 -1.09504,-0.94906 z m 17.083639,-0.31153 c -0.170505,-0.2391 0.02485,-0.30982 0.457962,-0.16577 0.84314,0.28041 0.997404,0.58275 0.297342,0.58275 -0.251879,0 -0.591766,-0.18764 -0.755304,-0.41698 z m -20.018632,-1.92462 c -0.663198,-0.87724 -0.697056,-1.169635 -0.183163,-1.581773 0.493994,-0.396179 0.553236,-0.387478 0.27374,0.04021 -0.19618,0.300195 -0.0043,1.011993 0.426505,1.581773 0.430758,0.56978 0.673692,1.03597 0.539854,1.03597 -0.133838,0 -0.609459,-0.48428 -1.056936,-1.07618 z m 15.81629,-0.5056 c -0.605372,-0.669007 -0.588158,-0.683927 0.183751,-0.15925 0.468433,0.3184 0.851697,0.65057 0.851697,0.73816 0,0.34716 -0.399658,0.12372 -1.035448,-0.57891 z m -7.761705,-0.843612 c -1.179876,-1.159969 -1.179876,-1.159969 0.158506,-0.137376 1.25092,0.955768 1.56157,1.297348 1.179876,1.297348 -0.08718,0 -0.689451,-0.52199 -1.338382,-1.159972 z m 5.328284,-0.843614 c -0.605373,-0.669009 -0.588159,-0.683928 0.18375,-0.159255 0.468434,0.318399 0.851698,0.650572 0.851698,0.738162 0,0.347162 -0.399659,0.123718 -1.035448,-0.578907 z m 0.745864,-1.898131 c -0.927127,-0.949065 -0.927127,-0.949065 0.167912,-0.145528 1.029068,0.755126 1.316599,1.094594 0.927128,1.094594 -0.09235,0 -0.585119,-0.42708 -1.09504,-0.949066 z m -4.639339,-0.63271 c -0.605372,-0.669009 -0.588158,-0.683929 0.18375,-0.159255 0.468434,0.318398 0.851698,0.650571 0.851698,0.738162 0,0.347161 -0.399658,0.123717 -1.035448,-0.578907 z m 17.582716,0.316355 c 0,-0.231994 0.219008,-0.421807 0.486684,-0.421807 0.267676,0 0.486684,0.189813 0.486684,0.421807 0,0.231994 -0.219008,0.421807 -0.486684,0.421807 -0.267676,0 -0.486684,-0.189813 -0.486684,-0.421807 z M 87.89942,95.329936 c -0.927128,-0.949066 -0.927128,-0.949066 0.167912,-0.145529 1.029067,0.755126 1.316599,1.094594 0.927128,1.094594 -0.09235,0 -0.58512,-0.427079 -1.09504,-0.949065 z m 46.5246,0.502365 c 0,-0.245686 0.219,-0.32939 0.48668,-0.18601 0.26768,0.14338 0.48669,0.344395 0.48669,0.446701 0,0.102305 -0.21901,0.186009 -0.48669,0.186009 -0.26768,0 -0.48668,-0.201015 -0.48668,-0.4467 z m -59.785334,-0.81872 c 0,-0.579985 0.110465,-0.817251 0.245477,-0.527259 0.135012,0.289992 0.135012,0.764525 0,1.054517 -0.135012,0.289992 -0.245477,0.05273 -0.245477,-0.527258 z m 2.681034,0.140602 c -0.443488,-0.384369 -0.41146,-1.82783 0.04056,-1.82783 0.200757,0 0.365013,0.474533 0.365013,1.054517 0,0.579985 -0.01825,1.054517 -0.04056,1.054517 -0.02231,0 -0.186563,-0.126542 -0.365013,-0.281204 z m 2.473978,-3.372605 c 0.334596,-0.117015 0.882116,-0.117015 1.216711,0 0.334596,0.117014 0.06084,0.212753 -0.608355,0.212753 -0.669191,0 -0.942951,-0.09574 -0.608356,-0.212753 z m 16.668939,-1.407874 c -0.438644,-0.245685 -0.498672,-0.411466 -0.150393,-0.415347 0.318798,-0.0036 0.714987,0.183354 0.88042,0.415347 0.373435,0.523684 0.204954,0.523684 -0.730027,0 z M 102.065,87.580025 c -0.46007,-0.608548 -0.59594,-0.977603 -0.30193,-0.820122 0.56182,0.300941 1.69496,1.926574 1.3429,1.926574 -0.11247,0 -0.58091,-0.497903 -1.04097,-1.106452 z M 85.718746,85.83928 c -1.179875,-1.159969 -1.179875,-1.159969 0.158507,-0.137376 1.250919,0.955766 1.561569,1.297345 1.179875,1.297345 -0.08718,0 -0.68945,-0.521986 -1.338382,-1.159969 z M 106.4049,85.733828 c 0,-0.54634 0.16455,-0.688951 0.47973,-0.415781 0.31519,0.27317 0.31519,0.558392 0,0.831562 -0.31518,0.273171 -0.47973,0.13056 -0.47973,-0.415781 z M 96.371384,84.180265 c 0.351325,-0.121847 0.77109,-0.106862 0.932812,0.0333 0.161721,0.140163 -0.125727,0.239856 -0.638774,0.221541 -0.566959,-0.02024 -0.682282,-0.12019 -0.294038,-0.254841 z m 6.356066,-0.450019 c -0.60537,-0.66901 -0.58815,-0.683929 0.18375,-0.159256 0.46844,0.318399 0.8517,0.650572 0.8517,0.738162 0,0.347162 -0.39966,0.123718 -1.03545,-0.578906 z M 85.54353,82.904823 c -0.264116,-0.601158 -0.208214,-0.649608 0.272443,-0.236125 0.332609,0.286126 0.482144,0.626485 0.332301,0.756354 -0.149844,0.129869 -0.421979,-0.104234 -0.604744,-0.520229 z m 13.29045,-1.283612 c -0.617853,-0.682802 -0.594948,-0.691754 0.305421,-0.119358 0.535353,0.340343 1.064619,0.672516 1.176159,0.738162 0.11153,0.06565 -0.0259,0.119358 -0.30543,0.119358 -0.27951,0 -0.808779,-0.332173 -1.17615,-0.738162 z m -6.504714,-2.209655 c -0.170505,-0.239105 0.02485,-0.30982 0.457961,-0.165775 0.843141,0.280414 0.997405,0.582751 0.297342,0.582751 -0.251878,0 -0.591765,-0.187639 -0.755303,-0.416976 z m 3.097923,-0.321187 c -0.601626,-0.664869 -0.585498,-0.682204 0.162432,-0.17459 0.456708,0.309965 1.092818,0.422997 1.413578,0.251183 0.368942,-0.197623 0.455622,-0.133481 0.235939,0.17459 -0.487099,0.683079 -1.035324,0.607081 -1.811949,-0.251183 z m -2.920106,-2.530841 c -0.605372,-0.669009 -0.588158,-0.683929 0.183751,-0.159255 0.810693,0.551035 1.068505,0.897417 0.667947,0.897417 -0.101063,0 -0.484327,-0.332173 -0.851698,-0.738162 z m 22.284307,0.129714 c -0.18232,-0.411783 -0.11187,-0.59451 0.17083,-0.443083 0.26461,0.141738 0.48111,0.02505 0.48111,-0.259297 0,-0.284351 0.12958,-0.404696 0.28795,-0.267434 0.15837,0.137262 0.0815,0.569301 -0.17083,0.960085 -0.42597,0.659698 -0.48098,0.660394 -0.76906,0.0097 z m 1.62531,0.442673 c 0,-0.09118 0.33988,-0.278815 0.7553,-0.416975 0.43311,-0.144046 0.62847,-0.07333 0.45796,0.165775 -0.28581,0.400802 -1.21326,0.592827 -1.21326,0.2512 z m -23.572905,-2.66323 c -0.264116,-0.601158 -0.208214,-0.649609 0.272443,-0.236125 0.332609,0.286126 0.482145,0.626485 0.332301,0.756354 -0.149844,0.129869 -0.421979,-0.104234 -0.604744,-0.520229 z m 30.295225,-0.833592 c 0.35133,-0.121848 0.77109,-0.106863 0.93281,0.0333 0.16173,0.140163 -0.12572,0.239857 -0.63877,0.221541 -0.56696,-0.02024 -0.68228,-0.12019 -0.29404,-0.254841 z m -10.4187,-3.191765 c -0.92713,-0.949066 -0.92713,-0.949066 0.16791,-0.145529 1.02907,0.755127 1.3166,1.094594 0.92713,1.094594 -0.0923,0 -0.58512,-0.427079 -1.09504,-0.949065 z m 17.74814,-1.054518 c -0.61785,-0.682802 -0.59495,-0.691753 0.30542,-0.119357 0.53536,0.340342 1.06463,0.672515 1.17616,0.738162 0.11153,0.06565 -0.0259,0.119358 -0.30542,0.119358 -0.27952,0 -0.80879,-0.332173 -1.17616,-0.738163 z m 2.00882,0.154648 c 0,-0.08894 0.43832,-0.26105 0.97404,-0.38247 0.53572,-0.121419 0.85131,-0.04865 0.7013,0.161708 -0.26195,0.367355 -1.67534,0.553599 -1.67534,0.220762 z m -3.13216,-2.667297 c -0.26411,-0.601159 -0.20821,-0.649609 0.27244,-0.236126 0.33261,0.286126 0.48215,0.626485 0.3323,0.756354 -0.14984,0.129869 -0.42197,-0.104234 -0.60474,-0.520228 z m -18.28195,-0.967258 c -0.43865,-0.245685 -0.49867,-0.411467 -0.1504,-0.415347 0.3188,-0.0036 0.71499,0.183354 0.88042,0.415347 0.37344,0.523684 0.20496,0.523684 -0.73002,0 z m 6.03731,-0.949065 c -0.92713,-0.949066 -0.92713,-0.949066 0.16791,-0.145529 1.02907,0.755127 1.3166,1.094594 0.92713,1.094594 -0.0923,0 -0.58512,-0.427079 -1.09504,-0.949065 z m 17.84864,-0.140602 c 0.0234,-0.491381 0.13868,-0.591331 0.29404,-0.254842 0.14059,0.304492 0.1233,0.6683 -0.0384,0.808463 -0.16172,0.140163 -0.27675,-0.108967 -0.25562,-0.553621 z m -24.9214,-1.335722 c -0.60537,-0.66901 -0.58816,-0.683929 0.18375,-0.159256 0.81069,0.551036 1.06851,0.897418 0.66795,0.897418 -0.10107,0 -0.48433,-0.332173 -0.8517,-0.738162 z m 10.966,-0.592432 c -0.22567,-0.316476 -0.13227,-0.371824 0.26676,-0.158081 0.45699,0.244784 0.5303,0.07267 0.28666,-0.672989 -0.25243,-0.772558 -0.21037,-0.857062 0.18375,-0.369178 0.63837,0.790244 0.67455,1.687228 0.0681,1.687228 -0.25188,0 -0.61423,-0.219141 -0.80523,-0.48698 z m 9.05014,-1.622055 c 0,-0.231993 0.23193,-0.421807 0.5154,-0.421807 0.28348,0 0.38006,0.189814 0.21462,0.421807 -0.16543,0.231994 -0.39736,0.421807 -0.5154,0.421807 -0.11804,0 -0.21462,-0.189813 -0.21462,-0.421807 z m -12.71587,-0.738162 c -0.60538,-0.669009 -0.58816,-0.683928 0.18375,-0.159255 0.81069,0.551036 1.0685,0.897417 0.66794,0.897417 -0.10106,0 -0.48432,-0.332173 -0.85169,-0.738162 z m -10.24955,0.02821 c 0.35132,-0.121847 0.77109,-0.106862 0.93281,0.0333 0.16172,0.140163 -0.12573,0.239856 -0.63877,0.221541 -0.56696,-0.02024 -0.68228,-0.12019 -0.29404,-0.254842 z m 9.82494,-3.878279 c 0,-0.425421 1.40758,-1.520899 1.63404,-1.271725 0.0828,0.09106 -0.25105,0.497733 -0.74179,0.903722 -0.49074,0.405989 -0.89225,0.571591 -0.89225,0.368003 z m 2.92011,-1.317068 c -0.43865,-0.245686 -0.49868,-0.411467 -0.1504,-0.415348 0.3188,-0.0036 0.71499,0.183354 0.88042,0.415348 0.37344,0.523683 0.20496,0.523683 -0.73002,0 z m 6.69191,-1.544776 c 0.33459,-0.117014 0.88211,-0.117014 1.21671,0 0.33459,0.117015 0.0608,0.212754 -0.60836,0.212754 -0.66919,0 -0.94295,-0.09574 -0.60835,-0.212754 z"
         id="path17" /><path
         style="fill:#333333;fill-opacity:1"
         d="m 85.270447,127.23752 c -8.52e-4,-0.0243 0.949825,-0.56548 2.112616,-1.20249 3.151403,-1.72644 5.562251,-5.93331 9.295695,-16.22075 1.005158,-2.7697 6.319602,-12.425786 9.320532,-16.934972 2.32826,-3.498416 4.563,-5.877603 9.10724,-9.695873 2.1648,-1.818961 4.32996,-3.01644 9.247,-5.11422 3.5312,-1.506527 7.7344,-3.17973 9.34046,-3.718228 1.60606,-0.538497 4.34366,-1.598496 6.08355,-2.355552 1.7399,-0.757056 4.8107,-1.942499 6.824,-2.634317 3.74944,-1.288394 6.63727,-2.602186 8.69703,-3.95664 0.88483,-0.581844 1.32236,-0.651294 1.82507,-0.2897 0.95429,0.686412 0.81837,1.362736 -0.48755,2.42604 -0.90278,0.735062 -1.21435,1.546856 -1.45501,3.791042 -0.16842,1.570629 -0.74777,3.967972 -1.28743,5.327429 -1.25657,3.165426 -3.10196,9.447154 -4.89629,16.667064 -2.07732,8.358617 -2.93892,10.739587 -5.495,15.185047 -3.5494,6.17303 -4.87153,7.50262 -10.10497,10.16201 -10.55369,5.3629 -13.76681,6.4055 -24.03762,7.79973 -6.49474,0.88164 -9.13947,1.03644 -15.93736,0.93286 -4.482727,-0.0683 -8.151111,-0.14412 -8.151963,-0.16848 z m 23.602643,-3.0759 c 8.38417,-1.10852 20.70008,-5.14311 20.67339,-6.77242 -0.0199,-1.21427 -1.87626,-4.23046 -2.51826,-4.09161 -0.34897,0.0755 -0.47024,0.0576 -0.26948,-0.0397 0.67551,-0.32742 0.37384,-1.09908 -1.51615,-3.87835 -1.03463,-1.52145 -2.14841,-3.48267 -2.47505,-4.35826 -0.32664,-0.87559 -0.84892,-1.5649 -1.16062,-1.5318 -1.63568,0.1737 -2.02,-0.071 -1.07957,-0.68748 1.13161,-0.74174 0.72158,-1.16681 -1.7989,-1.86489 -2.07653,-0.57512 -2.00865,-0.47297 -1.26027,-1.896527 0.72719,-1.383247 1.50378,-1.407044 0.89863,-0.02754 -0.37789,0.861431 -0.28283,1.128647 0.53676,1.508807 1.81976,0.84408 2.18723,0.2475 2.78284,-4.51787 0.31454,-2.516675 0.57159,-4.886871 0.5712,-5.267103 -8.8e-4,-0.865949 -7.24577,-3.954205 -7.91522,-3.373996 -0.27518,0.2385 -0.22389,1.332641 0.13217,2.819127 0.4628,1.932094 1.02967,2.844234 2.76947,4.456278 1.20316,1.114811 2.07403,2.2722 1.93525,2.571977 -0.18251,0.394248 -0.26317,0.369994 -0.29154,-0.08766 -0.0216,-0.347991 -0.90753,-1.340803 -1.9688,-2.206249 -1.37461,-1.120973 -2.15453,-2.244186 -2.71171,-3.905334 -0.8596,-2.562738 -1.19174,-2.606492 -3.23703,-0.426424 -1.71269,1.825544 -2.84066,3.539487 -6.38473,9.701564 -4.19176,7.28821 -4.34857,7.60914 -6.698347,13.70872 -1.117152,2.89992 -2.768841,6.54587 -3.67042,8.10211 -1.639234,2.82952 -1.639234,2.82952 2.128417,2.95265 3.77229,0.12328 6.15814,-0.0458 12.52797,-0.88803 z m 15.43489,-11.51045 c -0.36037,-0.31233 -1.99001,-0.47512 -4.34031,-0.43358 -2.51377,0.0444 -4.10723,-0.12879 -4.79918,-0.52173 -1.5652,-0.88885 -2.32322,-2.87169 -1.94142,-5.07835 0.32971,-1.90552 0.32971,-1.90552 1.99804,-0.80265 0.97079,0.64176 1.99076,0.99564 2.43949,0.8464 0.42414,-0.14106 1.09611,0.0252 1.49327,0.36938 0.63835,0.55326 0.53538,0.59557 -0.88786,0.36482 -0.88549,-0.14357 -1.81803,-0.42575 -2.07232,-0.62706 -0.25429,-0.20132 -0.96607,-0.36603 -1.58173,-0.36603 -0.92334,0 -1.11937,0.22527 -1.11937,1.28636 0,1.55872 1.1343,3.57672 2.21188,3.93511 1.34498,0.44731 4.37497,0.28823 5.05188,-0.26524 0.51589,-0.42181 0.68947,-0.42181 0.86792,0 0.12269,0.28999 0.69758,0.53329 1.27755,0.54067 0.57997,0.007 1.47961,0.2921 1.9992,0.63271 0.5196,0.34061 0.72765,0.6193 0.46235,0.6193 -0.2653,0 -0.74203,-0.22505 -1.05939,-0.50011 z m -3.95939,-6.91666 c 0.0234,-0.49138 0.13868,-0.59133 0.29404,-0.25485 0.14059,0.3045 0.1233,0.6683 -0.0384,0.80847 -0.16172,0.14016 -0.27675,-0.10897 -0.25562,-0.55362 z m 13.41496,10.01189 c 3.24344,-1.81689 4.90084,-3.78074 7.89393,-9.35352 2.09421,-3.89918 2.86646,-6.13107 4.66708,-13.488334 1.45855,-5.959572 3.88538,-14.183996 5.10307,-17.294084 0.80281,-2.050434 1.62701,-5.905296 1.2626,-5.905296 -0.13447,0 -3.55716,1.222352 -6.34245,2.265092 -0.80303,0.300633 -3.32162,1.340668 -5.59687,2.31119 -2.27525,0.970522 -4.30948,1.761488 -4.52052,1.757703 -0.36741,-0.0066 -10.10731,3.751008 -10.52586,4.060814 -0.11138,0.08244 0.7099,1.813909 1.82507,3.847703 1.11516,2.033795 2.02757,3.932034 2.02757,4.218309 0,0.286275 0.21901,0.5205 0.48669,0.5205 0.26767,0 0.48668,0.355497 0.48668,0.789994 0,0.434497 0.45831,1.687967 1.01847,2.785488 0.56016,1.097521 1.16476,3.257047 1.34356,4.798947 0.26097,2.250518 0.48446,2.792996 1.13312,2.750429 0.54046,-0.03547 0.71222,0.163381 0.51869,0.600485 -0.21252,0.48 -0.0731,0.58159 0.52517,0.38262 0.67725,-0.22524 0.81452,0.0112 0.81452,1.4031 0,0.99421 0.23057,1.67399 0.5678,1.67399 0.31229,0 0.43117,0.11841 0.26419,0.26313 -0.16698,0.14472 0.14131,1.01897 0.68508,1.94277 1.8505,3.14374 0.16916,5.57699 -4.43718,6.42151 -0.66919,0.12269 -1.51432,0.39109 -1.87806,0.59644 -0.7779,0.43916 -1.40068,4.27397 -0.69411,4.27397 0.26099,0 1.77828,-0.73033 3.37176,-1.62295 z m 1.91126,-16.04515 c -0.14669,-0.205707 0.0594,-0.608575 0.45796,-0.895262 1.01858,-0.73266 0.90074,-1.806952 -0.26759,-2.439318 -1.13618,-0.61497 -0.85305,-1.353089 0.51902,-1.353089 0.62616,0 0.83798,0.206426 0.64924,0.63271 -0.15421,0.348283 -0.0145,0.63271 0.31068,0.63271 0.32496,0 0.47019,0.272457 0.32276,0.605459 -0.14744,0.333002 -0.007,0.701611 0.31294,0.819132 0.39408,0.144928 0.307,0.364 -0.27068,0.680922 -0.46844,0.256986 -0.8517,0.742536 -0.8517,1.078999 0,0.674057 -0.76223,0.827287 -1.18263,0.237737 z m -1.73748,-4.179839 c 0,-0.202611 0.64822,-0.868953 1.44048,-1.48076 2.39997,-1.853326 3.06982,-3.408785 2.68987,-6.24609 -0.44098,-3.293034 -1.43566,-3.291748 -5.83374,0.0075 -1.46006,1.09528 -1.46006,1.09528 -0.0853,-0.22617 1.69417,-1.628427 4.33027,-2.901848 5.32336,-2.571563 0.98383,0.327204 1.58976,4.727128 0.87528,6.355831 -0.52315,1.192568 -4.41,4.860142 -4.41,4.161213 z m -0.0976,16.364449 c 1.45591,0 3.3448,-1.52278 3.67755,-2.96474 0.21641,-0.93779 -0.0387,-1.88381 -0.90956,-3.37332 -0.66567,-1.13852 -1.2103,-2.42655 -1.2103,-2.8623 0,-0.43574 -0.42768,-1.1277 -0.95039,-1.53769 -0.91599,-0.71845 -0.95826,-0.70937 -1.16793,0.25098 -0.11966,0.54803 -0.76473,3.17926 -1.4335,5.84719 -0.66878,2.66793 -1.11545,4.99365 -0.99261,5.16828 0.12283,0.17462 0.63367,0.12717 1.13518,-0.10546 0.50151,-0.23262 1.33471,-0.42294 1.85156,-0.42294 z m -6.0718,-1.51819 c -0.18726,-0.42293 -0.45217,-0.50415 -0.7637,-0.23415 -0.55735,0.48305 -0.0178,1.45387 0.61861,1.113 0.23749,-0.12721 0.30278,-0.52269 0.14509,-0.87885 z m -2.09132,-4.36625 c -0.2936,-0.47546 -0.74512,-0.86447 -1.00337,-0.86447 -0.7232,0 -0.55856,1.16514 0.37546,2.65724 0.84503,1.34992 0.84503,1.34992 1.00337,0.21081 0.0871,-0.62651 -0.0819,-1.52812 -0.37546,-2.00358 z m 6.71528,-8.351546 c -0.13255,-1.93267 -0.62375,-3.651295 -1.52926,-5.350596 -1.23634,-2.320143 -1.39241,-2.452764 -2.13209,-1.81169 -0.68613,0.594669 -0.72222,1.005046 -0.25726,2.925206 0.29746,1.228423 0.6878,3.087656 0.86741,4.131628 0.38257,2.223626 0.94496,2.952648 2.27776,2.952648 0.89075,0 0.95299,-0.2291 0.77344,-2.847196 z m -3.32613,-8.487787 c -0.006,-0.862173 -2.26666,-5.115486 -2.71895,-5.115486 -0.48525,0 0.18428,4.945471 0.80579,5.951974 0.42004,0.680226 0.6657,0.750739 1.22183,0.350716 0.38285,-0.275379 0.69395,-0.809621 0.69133,-1.187204 z m -6.30516,-0.159255 c 0.009,-0.289992 0.33354,-2.045764 0.72045,-3.901714 0.38691,-1.85595 0.70778,-3.622671 0.71305,-3.926046 0.0133,-0.76557 -4.17332,1.320947 -7.13628,3.556574 -2.34449,1.768971 -2.34449,1.768971 1.29191,3.283708 4.01425,1.672128 4.38614,1.755385 4.41087,0.987478 z M 81.12314,112.61107 c -2.399869,-2.18396 -10.317686,-7.09175 -12.47792,-7.73434 -1.980313,-0.58906 -2.206261,-1.13586 -0.927377,-2.24426 0.552082,-0.47849 1.003786,-1.05979 1.003786,-1.29179 0,-0.73592 0.544641,-0.4758 3.839298,1.83364 5.772231,4.04612 11.171597,7.02431 12.734879,7.02431 0.488958,0 1.019628,0.18316 1.179266,0.40703 0.364635,0.51134 -2.117049,3.81561 -2.852573,3.79809 -0.299025,-0.007 -1.423736,-0.81383 -2.499359,-1.79268 z m -2.297963,-7.17068 c -2.097757,-0.7983 -3.334629,-2.09257 -2.604507,-2.72536 0.353985,-0.3068 5.641437,2.80197 5.641437,3.3169 0,0.49949 -0.348099,0.43169 -3.03693,-0.59154 z m 8.116962,-1.12074 c -3.417087,-0.70885 -9.199419,-4.29322 -11.125557,-6.896537 -1.160402,-1.568369 -1.109874,-3.392239 0.125825,-4.541795 2.246312,-2.089716 7.486974,-0.802816 12.880625,3.162974 3.665536,2.69516 4.707244,4.670528 3.766208,7.141798 -0.533886,1.40204 -0.730706,1.52546 -2.369572,1.48587 -0.983027,-0.0237 -2.457915,-0.18228 -3.277529,-0.35231 z m 4.16697,-1.90802 c 0,-1.14474 -1.406255,-2.483458 -3.650132,-3.474832 -0.803029,-0.354789 -2.007573,-1.084094 -2.676764,-1.620679 -1.052424,-0.843876 -7.037347,-3.989766 -7.590361,-3.989766 -0.108124,0 -0.196589,0.341518 -0.196589,0.75893 0,0.713879 5.479118,4.648521 11.101268,7.971997 2.77867,1.64258 3.012578,1.6701 3.012578,0.35435 z m -15.817241,-1.09408 c -0.535353,-0.18666 -1.891227,-0.35272 -3.013054,-0.36903 -2.448908,-0.0356 -2.938218,-0.55255 -1.865739,-1.971166 0.801978,-1.060811 0.801978,-1.060811 3.083728,0.07221 2.727606,1.354406 3.738589,2.117166 3.18015,2.399336 -0.226444,0.11441 -0.849732,0.0553 -1.385085,-0.13135 z m 18.362867,-5.011566 c -1.645121,-2.29366 -1.336431,-3.374858 0.370406,-1.297363 0.574048,0.698709 1.482059,1.27038 2.017802,1.27038 0.730672,0 0.935215,0.236079 0.818557,0.944757 -0.279082,1.695371 -1.60459,1.316011 -3.206765,-0.917774 z m 2.799086,-2.030566 c -1.130528,-0.696144 -11.474984,-3.964286 -14.995284,-4.737487 -2.032332,-0.446382 -2.242277,-0.63309 -1.766996,-1.571425 0.210707,-0.415994 0.402019,-0.914014 0.425137,-1.106711 0.02312,-0.192697 0.446525,-0.606701 0.940904,-0.92001 0.782869,-0.496138 1.191119,-0.416406 3.163448,0.617829 1.245518,0.653115 3.031106,1.387759 3.967973,1.632542 0.936868,0.244784 3.674467,0.97858 6.083555,1.63066 2.409087,0.652079 4.599167,1.190616 4.866843,1.196747 1.861289,0.04264 2.078309,2.279199 0.332748,3.429291 -1.102673,0.726515 -1.606545,0.697896 -3.018328,-0.171436 z m 6.335709,-6.39663 c 0,-0.212235 -1.04136,-1.048414 -2.31415,-1.858174 -2.143283,-1.363586 -3.530671,-1.891356 -10.826324,-4.118394 -1.47222,-0.449403 -2.956629,-0.90609 -3.298687,-1.01486 -0.447927,-0.142434 -0.259632,-0.672243 0.673029,-1.893716 0.712224,-0.932775 1.4977,-1.695954 1.745502,-1.695954 0.247802,0 1.258986,0.534073 2.247077,1.186829 1.77207,1.170672 4.567843,2.187626 6.014139,2.187626 0.407943,0 1.138113,0.379627 1.622601,0.843614 0.484487,0.463988 1.100031,0.843614 1.367873,0.843614 0.26784,0 1.23517,0.494596 2.14962,1.099103 0.91445,0.604507 2.2349,1.231748 2.93434,1.39387 1.72699,0.4003 1.80185,0.892199 0.34327,2.255525 -1.20494,1.126253 -2.65829,1.547729 -2.65829,0.770917 z M 86.308138,86.005502 c -0.62235,-0.574151 -1.658296,-1.158494 -2.302104,-1.298539 -1.269758,-0.276206 -1.512651,-1.038764 -0.586537,-1.841422 1.029816,-0.892536 1.736928,-0.551533 3.037108,1.464639 1.50641,2.335968 1.435459,3.136581 -0.148467,1.675322 z m 7.83446,-8.286005 c -1.096276,-0.969285 -2.369955,-1.687228 -2.993255,-1.687228 -1.310834,0 -1.229249,-1.148235 0.131656,-1.85292 0.728517,-0.377231 1.009221,-0.310151 1.460053,0.348906 0.306975,0.448758 1.379417,1.608864 2.383203,2.578012 1.003787,0.969149 1.825067,1.883222 1.825067,2.031273 0,0.666374 -1.048157,0.136813 -2.806724,-1.418043 z m 17.077212,0.254616 c 0.34271,-0.774033 -5.7656,-11.210484 -7.70566,-13.165624 -0.66556,-0.670738 -1.21038,-1.355205 -1.21071,-1.521038 -10e-4,-0.509399 1.63666,-1.08246 2.91952,-1.021615 0.99839,0.04735 1.50056,0.568581 2.79866,2.904905 0.9862,1.774971 1.87815,2.847197 2.36848,2.847197 0.57654,0 0.72444,-0.281545 0.55395,-1.054517 -0.37524,-1.701286 0.47702,-1.219381 2.05144,1.159969 1.80156,2.722611 1.95234,3.80515 0.34806,2.498916 -2.46381,-2.006075 -2.39909,-0.676549 0.18379,3.775747 1.08762,1.874807 1.9089,3.46232 1.82507,3.527808 -0.0838,0.06549 -1.11616,0.257169 -2.29407,0.425958 -1.85803,0.26625 -2.1015,0.216232 -1.83853,-0.377706 z m 4.7102,-3.839975 c 0,-1.507959 0.18981,-2.741745 0.4218,-2.741745 0.23199,0 0.89809,0.993312 1.48023,2.20736 0.99688,2.078999 1.00939,2.238434 0.21521,2.741744 -1.71771,1.088585 -2.11724,0.672051 -2.11724,-2.207359 z m 6.29583,-0.738162 c -0.0171,-0.058 -0.10041,-0.714396 -0.18515,-1.458661 -0.23528,-2.066274 -2.44688,-4.972571 -6.71845,-8.828812 -3.4781,-3.139922 -3.79863,-3.564213 -3.13026,-4.143489 0.40954,-0.354948 1.30182,-0.828968 1.98285,-1.053379 1.03045,-0.339551 1.36328,-0.253295 1.98339,0.514024 0.40984,0.507124 0.74516,1.128494 0.74516,1.380824 0,0.252329 0.62581,1.0168 1.39068,1.698825 1.6008,1.427401 6.39627,7.514535 6.39627,8.119111 0,0.223041 0.54752,0.716455 1.21671,1.096476 1.58104,0.897844 1.53457,1.350989 -0.21917,2.13699 -1.22159,0.547496 -3.36128,0.880061 -3.46203,0.538091 z m 8.31181,-4.806643 c -0.27182,-0.662258 -0.69748,-1.511985 -0.94591,-1.888282 -0.24843,-0.376297 -1.79069,-2.874762 -3.42723,-5.552145 -1.63654,-2.677383 -3.29475,-5.097582 -3.68491,-5.37822 -0.99982,-0.719168 -0.88079,-1.568376 0.26399,-1.88328 1.84856,-0.508498 2.91735,0.227221 4.642,3.195381 1.93058,3.322583 2.92368,3.807703 2.52532,1.233592 -0.14361,-0.927975 -0.0776,-1.687228 0.14671,-1.687228 0.42567,0 3.87971,5.383547 3.87971,6.047009 0,0.209122 -0.78091,-0.136008 -1.73536,-0.766956 -0.95445,-0.630948 -1.85485,-1.043618 -2.00089,-0.917045 -0.14604,0.126573 0.751,1.886281 1.99343,3.910461 1.24242,2.024181 2.08807,3.824489 1.87922,4.000685 -0.20886,0.176197 -0.97872,0.448557 -1.71081,0.605245 -1.15521,0.24725 -1.39635,0.125811 -1.82527,-0.919217 z m 4.72841,-3.207688 c 0.14468,-1.449962 0.33477,-2.708315 0.42242,-2.796342 0.0876,-0.08803 0.68841,0.861039 1.33504,2.109035 1.05645,2.038954 1.09822,2.322557 0.41179,2.796341 -0.42015,0.289993 -1.1393,0.527259 -1.59811,0.527259 -0.72688,0 -0.80036,-0.339135 -0.57114,-2.636293 z m -24.57663,-1.581776 c -0.33433,-0.463988 -1.03162,-0.843614 -1.54953,-0.843614 -0.5179,0 -1.28435,-0.424056 -1.70321,-0.942347 -0.69933,-0.865341 -0.69165,-0.966326 0.0941,-1.235774 1.70268,-0.583903 2.3985,-0.323892 3.44279,1.286486 1.09759,1.692572 1.33589,2.578863 0.69337,2.578863 -0.20329,0 -0.64316,-0.379627 -0.97749,-0.843614 z m 9.94169,-1.97896 c -0.3983,-0.667559 -0.87544,-1.912512 -1.0603,-2.766562 -0.21358,-0.986708 -0.67237,-1.645313 -1.25844,-1.806528 -1.20433,-0.331287 -1.17036,-0.895741 0.0891,-1.479921 1.62826,-0.755252 2.55908,-0.183639 2.27325,1.395987 -0.13569,0.749868 0.0359,2.312463 0.38138,3.472432 0.73557,2.469993 0.58778,2.881963 -0.42497,1.184592 z m 8.77724,-7.103218 c -0.75103,-0.572654 -1.79132,-1.041188 -2.31175,-1.041188 -1.06081,0 -1.24928,-0.834045 -0.36221,-1.602866 1.12823,-0.977827 2.24515,-0.518138 3.51119,1.44509 0.69208,1.073193 1.25832,2.022258 1.25832,2.109035 0,0.407903 -0.85268,0.03759 -2.09555,-0.910071 z"
         id="path16" /></g></g></svg>
